<?xml version="1.0" standalone="no"?>
<svg viewBox="0 0 200 200" xmlns="http://www.w3.org/2000/svg">
  <path fill="#FF0066" d="M40.2,-62.3C53.9,-61.8,67.9,-54.6,73.9,-43C80,-31.5,78.1,-15.8,78.6,0.3C79,16.3,81.7,32.5,73.3,39.8C64.8,47.2,45.1,45.6,31,48.8C16.9,51.9,8.5,59.9,-3,65C-14.4,70.2,-28.9,72.6,-42.7,69.3C-56.6,66,-69.9,57,-77.4,44.5C-84.8,32,-86.4,16,-86.3,0C-86.2,-15.9,-84.5,-31.9,-74.2,-39.4C-63.8,-46.9,-44.9,-46,-31.1,-46.3C-17.3,-46.7,-8.7,-48.4,2.3,-52.4C13.3,-56.5,26.6,-62.8,40.2,-62.3Z" transform="translate(100 100)" />
</svg>
