<?xml version="1.0" standalone="no"?>
<svg viewBox="0 0 200 200" xmlns="http://www.w3.org/2000/svg">
  <path fill="#FF0066" d="M34.1,-57.6C48.5,-50.7,67.5,-50.3,74.4,-41.8C81.4,-33.3,76.3,-16.6,74.6,-1C73,14.7,74.7,29.4,69.2,40.5C63.8,51.6,51.1,59.1,38.3,65.4C25.6,71.7,12.8,77,1.6,74.2C-9.6,71.4,-19.2,60.6,-26.8,51.3C-34.4,42,-40,34.1,-50.8,25.8C-61.5,17.5,-77.5,8.8,-81.4,-2.2C-85.3,-13.2,-77,-26.5,-65.8,-34C-54.5,-41.5,-40.2,-43.2,-28.8,-51.8C-17.3,-60.4,-8.7,-75.9,0.6,-76.9C9.8,-77.9,19.7,-64.5,34.1,-57.6Z" transform="translate(100 100)" />
</svg>
