<?xml version="1.0" standalone="no"?>
<svg viewBox="0 0 200 200" xmlns="http://www.w3.org/2000/svg">
  <path fill="#FF0066" d="M39.8,-74.2C49.3,-63.5,53.1,-48.2,58.2,-35.1C63.2,-21.9,69.5,-11,72.8,1.9C76.1,14.8,76.4,29.5,70.5,41.2C64.6,52.8,52.4,61.3,39.7,64.8C26.9,68.3,13.4,66.7,1.7,63.7C-10,60.7,-20,56.3,-29.1,50.7C-38.2,45.1,-46.4,38.3,-58,29.7C-69.6,21,-84.6,10.5,-83.6,0.5C-82.7,-9.4,-65.8,-18.8,-53.5,-26.2C-41.1,-33.5,-33.2,-38.7,-25.1,-50.1C-16.9,-61.6,-8.4,-79.2,3.4,-85.1C15.2,-90.9,30.4,-84.9,39.8,-74.2Z" transform="translate(100 100)" />
</svg>
