<?xml version="1.0" standalone="no"?>
<svg viewBox="0 0 200 200" xmlns="http://www.w3.org/2000/svg">
  <path fill="#FF0066" d="M35.7,-61.5C45,-56.3,50.6,-44.4,56.4,-33C62.1,-21.7,67.9,-10.8,71.1,1.9C74.3,14.5,74.9,29.1,70.5,42.7C66.1,56.4,56.7,69.1,44.1,71.9C31.5,74.7,15.7,67.6,2.2,63.8C-11.4,60,-22.7,59.5,-36.3,57.3C-49.9,55,-65.8,51.1,-73.9,41.3C-82,31.4,-82.4,15.7,-79.8,1.5C-77.2,-12.7,-71.5,-25.4,-63.5,-35.3C-55.4,-45.2,-44.9,-52.4,-33.9,-56.6C-22.9,-60.8,-11.5,-62,0.8,-63.4C13.1,-64.9,26.3,-66.6,35.7,-61.5Z" transform="translate(100 100)" />
</svg>
