<?xml version="1.0" standalone="no"?>
<svg viewBox="0 0 200 200" xmlns="http://www.w3.org/2000/svg">
  <path fill="#FF0066" d="M37.5,-69.7C47.2,-59.3,52.8,-46.5,62.2,-34.5C71.7,-22.5,85,-11.2,89.4,2.6C93.9,16.4,89.5,32.7,77.3,40C65.1,47.4,45.2,45.6,31.1,50.1C16.9,54.6,8.4,65.3,-0.8,66.6C-10,68,-20.1,60.1,-32.4,54.6C-44.8,49,-59.4,45.9,-64.2,37.2C-69.1,28.5,-64.1,14.2,-65.3,-0.7C-66.4,-15.6,-73.6,-31.1,-69.9,-41.7C-66.1,-52.3,-51.4,-57.8,-37.9,-66.1C-24.4,-74.3,-12.2,-85.2,0.8,-86.6C13.9,-88.1,27.7,-80.1,37.5,-69.7Z" transform="translate(100 100)" />
</svg>
