<?xml version="1.0" standalone="no"?>
<svg viewBox="0 0 200 200" xmlns="http://www.w3.org/2000/svg">
  <path fill="#FF0066" d="M40.8,-69.9C55.2,-62.3,70.8,-56.1,78.4,-44.7C86,-33.3,85.6,-16.6,80.3,-3.1C75,10.5,64.8,21,58.4,34.6C52.1,48.2,49.6,64.8,40.5,73.7C31.4,82.6,15.7,83.8,0.4,83.1C-14.9,82.4,-29.8,79.9,-42.9,73.3C-55.9,66.7,-67.1,56,-73.7,43.1C-80.3,30.1,-82.2,15.1,-81.1,0.6C-80.1,-13.9,-76,-27.7,-69.2,-40.1C-62.3,-52.6,-52.7,-63.6,-40.7,-72.6C-28.7,-81.6,-14.4,-88.5,-0.6,-87.5C13.2,-86.5,26.3,-77.5,40.8,-69.9Z" transform="translate(100 100)" />
</svg>
