<?xml version="1.0" encoding="UTF-8" standalone="no"?>
<!DOCTYPE svg PUBLIC "-//W3C//DTD SVG 1.1//EN" "http://www.w3.org/Graphics/SVG/1.1/DTD/svg11.dtd">
<svg width="100%" height="100%" viewBox="0 0 171 171" version="1.1" xmlns="http://www.w3.org/2000/svg" xmlns:xlink="http://www.w3.org/1999/xlink" xml:space="preserve" xmlns:serif="http://www.serif.com/" style="fill-rule:evenodd;clip-rule:evenodd;stroke-linejoin:round;stroke-miterlimit:2;">
    <g transform="matrix(1,0,0,1,-562.32,-70.5178)">
        <g transform="matrix(1,0,0,1,12.7679,-5.46425)">
            <path d="M549.552,161.218C549.552,114.144 587.713,75.982 634.787,75.982C681.862,75.982 720.024,114.144 720.024,161.218C720.024,208.293 681.862,246.454 634.787,246.454C587.713,246.454 549.552,208.293 549.552,161.218Z" style="fill:rgb(255,208,93);fill-rule:nonzero;"/>
        </g>
        <g transform="matrix(1,0,0,1,12.7679,-5.46425)">
            <path d="M679.382,88.469C687.87,101.721 692.792,117.476 692.792,134.381C692.792,181.456 654.631,219.617 607.556,219.617C591.207,219.617 575.935,215.011 562.961,207.029C578.11,230.68 604.618,246.354 634.787,246.354C681.862,246.354 720.024,208.192 720.024,161.117C720.024,130.392 703.764,103.467 679.382,88.469Z" style="fill:rgb(253,196,83);fill-rule:nonzero;"/>
        </g>
        <g transform="matrix(1,0,0,1,12.7679,-5.46425)">
            <path d="M561.136,170.211C561.136,126.505 596.567,91.075 640.273,91.075C665.82,91.075 688.535,103.183 703.004,121.97C689.339,98.248 663.726,82.276 634.383,82.276C590.677,82.276 555.246,117.706 555.246,161.412C555.246,179.571 561.367,196.299 571.652,209.653C564.963,198.042 561.136,184.573 561.136,170.211Z" style="fill:rgb(255,215,127);fill-rule:nonzero;"/>
        </g>
        <g transform="matrix(1,0,0,1,12.7679,-5.46425)">
            <path d="M609.666,140.539C609.666,146.386 606.854,151.125 603.386,151.125C599.917,151.125 597.105,146.386 597.105,140.539C597.105,134.692 599.917,129.953 603.386,129.953C606.854,129.953 609.666,134.692 609.666,140.539Z" style="fill:rgb(48,48,48);fill-rule:nonzero;"/>
        </g>
        <g transform="matrix(1,0,0,1,12.7679,-5.46425)">
            <path d="M672.47,140.539C672.47,146.386 669.659,151.125 666.19,151.125C662.721,151.125 659.91,146.386 659.91,140.539C659.91,134.692 662.721,129.953 666.19,129.953C669.659,129.953 672.47,134.692 672.47,140.539Z" style="fill:rgb(48,48,48);fill-rule:nonzero;"/>
        </g>
        <g transform="matrix(1,0,0,1,12.7679,-5.46425)">
            <path d="M685.136,122.67C684.218,122.402 683.326,122.152 682.454,121.909C680.539,121.373 678.73,120.867 676.983,120.261C674.37,119.378 672.021,118.379 669.801,117.207C667.465,115.971 665.342,114.594 663.309,112.995C661.09,111.272 659.029,109.257 657.132,107.334C657.024,107.225 656.86,107.193 656.72,107.256C656.579,107.317 656.491,107.459 656.499,107.612C656.641,110.521 657.791,113.53 659.829,116.313C661.691,118.83 664.184,120.951 667.039,122.445C669.725,123.859 672.729,124.723 675.752,124.95C675.869,124.959 675.986,124.967 676.102,124.974C679.488,125.151 682.546,124.608 685.19,123.36C685.329,123.295 685.413,123.149 685.401,122.996C685.389,122.843 685.283,122.713 685.136,122.67Z" style="fill:rgb(65,64,66);fill-rule:nonzero;"/>
        </g>
        <g transform="matrix(1,0,0,1,12.7679,-5.46425)">
            <path d="M584.44,122.67C585.357,122.402 586.249,122.152 587.121,121.909C589.036,121.373 590.845,120.867 592.593,120.261C595.205,119.378 597.555,118.379 599.775,117.207C602.111,115.971 604.234,114.594 606.266,112.995C608.486,111.272 610.547,109.257 612.443,107.334C612.551,107.225 612.715,107.193 612.856,107.256C612.996,107.317 613.084,107.459 613.077,107.612C612.935,110.521 611.784,113.53 609.746,116.313C607.885,118.83 605.391,120.951 602.536,122.445C599.85,123.859 596.846,124.723 593.824,124.95C593.707,124.959 593.59,124.967 593.473,124.974C590.087,125.151 587.03,124.608 584.386,123.36C584.246,123.295 584.162,123.149 584.174,122.996C584.186,122.843 584.292,122.713 584.44,122.67Z" style="fill:rgb(65,64,66);fill-rule:nonzero;"/>
        </g>
        <g transform="matrix(1,0,0,1,12.7679,-5.46425)">
            <path d="M652.782,174.143C647.932,169.941 641.359,167.572 634.785,167.697C628.319,167.722 621.806,170.083 616.906,174.181C614.434,176.273 612.37,178.825 610.926,181.579C609.406,184.573 608.619,187.588 608.587,190.54C608.579,191.247 609.024,191.879 609.692,192.111C610.36,192.344 611.1,192.122 611.532,191.563C613.297,189.28 614.972,187.466 616.643,186.025C618.443,184.499 620.357,183.223 622.327,182.232C626.254,180.27 630.588,179.222 634.869,179.203C639.262,179.17 643.423,180.157 647.258,182.151C651.21,184.176 654.836,187.338 658.035,191.553C658.351,191.97 658.841,192.202 659.345,192.202C659.524,192.202 659.705,192.173 659.881,192.112C660.553,191.88 660.999,191.243 660.989,190.532C660.897,184.588 657.826,178.458 652.782,174.143Z" style="fill:rgb(94,73,57);fill-rule:nonzero;"/>
        </g>
        <g transform="matrix(1,0,0,1,12.7679,-5.46425)">
            <path d="M673.703,156.616C648.452,185.493 651.255,202.053 651.255,202.053C651.255,214.45 661.305,224.5 673.703,224.5C686.1,224.5 696.15,214.45 696.15,202.053C696.15,202.053 698.953,185.493 673.703,156.616Z" style="fill:rgb(124,196,232);fill-rule:nonzero;"/>
        </g>
        <g transform="matrix(1,0,0,1,12.7679,-5.46425)">
            <path d="M657.015,217.063C661.124,221.628 667.077,224.5 673.703,224.5C686.099,224.5 696.15,214.45 696.15,202.053C696.15,202.053 697.318,195.088 691.27,182.329C686.805,211.427 668.526,216.725 657.015,217.063Z" style="fill:rgb(98,187,232);fill-rule:nonzero;"/>
        </g>
    </g>
</svg>
