<?xml version="1.0" encoding="UTF-8" standalone="no"?>
<!DOCTYPE svg PUBLIC "-//W3C//DTD SVG 1.1//EN" "http://www.w3.org/Graphics/SVG/1.1/DTD/svg11.dtd">
<svg width="100%" height="100%" viewBox="0 0 171 171" version="1.1" xmlns="http://www.w3.org/2000/svg" xmlns:xlink="http://www.w3.org/1999/xlink" xml:space="preserve" xmlns:serif="http://www.serif.com/" style="fill-rule:evenodd;clip-rule:evenodd;stroke-linejoin:round;stroke-miterlimit:2;">
    <g transform="matrix(1,0,0,1,-92.702,-75.9821)">
        <path d="M92.702,161.218C92.702,114.144 130.864,75.982 177.939,75.982C225.014,75.982 263.175,114.144 263.175,161.218C263.175,208.293 225.014,246.454 177.939,246.454C130.864,246.454 92.702,208.293 92.702,161.218Z" style="fill:rgb(255,208,93);fill-rule:nonzero;"/>
        <path d="M222.533,88.469C231.021,101.721 235.943,117.476 235.943,134.381C235.943,181.456 197.782,219.617 150.707,219.617C134.358,219.617 119.086,215.011 106.113,207.029C121.261,230.68 147.769,246.354 177.939,246.354C225.014,246.354 263.175,208.192 263.175,161.117C263.175,130.392 246.915,103.467 222.533,88.469Z" style="fill:rgb(253,196,83);fill-rule:nonzero;"/>
        <path d="M104.287,170.211C104.287,126.505 139.718,91.075 183.424,91.075C208.971,91.075 231.686,103.183 246.155,121.97C232.49,98.248 206.877,82.276 177.534,82.276C133.828,82.276 98.396,117.706 98.396,161.412C98.396,179.571 104.517,196.299 114.803,209.653C108.114,198.042 104.287,184.573 104.287,170.211Z" style="fill:rgb(255,215,127);fill-rule:nonzero;"/>
        <path d="M152.817,140.539C152.817,146.386 150.005,151.125 146.536,151.125C143.068,151.125 140.256,146.386 140.256,140.539C140.256,134.692 143.068,129.953 146.536,129.953C150.005,129.953 152.817,134.692 152.817,140.539Z" style="fill:rgb(48,48,48);fill-rule:nonzero;"/>
        <path d="M215.621,140.539C215.621,146.386 212.809,151.125 209.341,151.125C205.872,151.125 203.06,146.386 203.06,140.539C203.06,134.692 205.872,129.953 209.341,129.953C212.809,129.953 215.621,134.692 215.621,140.539Z" style="fill:rgb(48,48,48);fill-rule:nonzero;"/>
        <path d="M120.664,169.28C123.91,198.044 148.308,220.4 177.939,220.4C207.57,220.4 231.968,198.044 235.214,169.28L120.664,169.28Z" style="fill:rgb(105,83,66);fill-rule:nonzero;"/>
        <path d="M138.376,204.657C148.699,214.41 162.614,220.4 177.939,220.4C192.602,220.4 205.979,214.919 216.151,205.901L215.621,204.663C177.159,185.907 138.899,204.402 138.376,204.657Z" style="fill:rgb(240,102,105);fill-rule:nonzero;"/>
    </g>
</svg>
