<?xml version="1.0" encoding="UTF-8" standalone="no"?>
<!DOCTYPE svg PUBLIC "-//W3C//DTD SVG 1.1//EN" "http://www.w3.org/Graphics/SVG/1.1/DTD/svg11.dtd">
<svg width="100%" height="100%" viewBox="0 0 171 171" version="1.1" xmlns="http://www.w3.org/2000/svg" xmlns:xlink="http://www.w3.org/1999/xlink" xml:space="preserve" xmlns:serif="http://www.serif.com/" style="fill-rule:evenodd;clip-rule:evenodd;stroke-linejoin:round;stroke-miterlimit:2;">
    <g transform="matrix(1,0,0,1,-1234.83,-75.9821)">
        <path d="M1234.83,161.218C1234.83,114.144 1272.99,75.982 1320.06,75.982C1367.14,75.982 1405.3,114.144 1405.3,161.218C1405.3,208.293 1367.14,246.454 1320.06,246.454C1272.99,246.454 1234.83,208.293 1234.83,161.218Z" style="fill:rgb(255,208,93);fill-rule:nonzero;"/>
        <path d="M1364.66,88.469C1373.14,101.721 1378.07,117.476 1378.07,134.381C1378.07,181.456 1339.9,219.617 1292.83,219.617C1276.48,219.617 1261.21,215.011 1248.23,207.029C1263.38,230.68 1289.89,246.354 1320.06,246.354C1367.14,246.354 1405.3,208.192 1405.3,161.117C1405.3,130.392 1389.04,103.467 1364.66,88.469Z" style="fill:rgb(253,196,83);fill-rule:nonzero;"/>
        <path d="M1246.41,170.211C1246.41,126.505 1281.84,91.075 1325.55,91.075C1351.09,91.075 1373.81,103.183 1388.28,121.97C1374.61,98.248 1349,82.276 1319.66,82.276C1275.95,82.276 1240.52,117.706 1240.52,161.412C1240.52,179.571 1246.64,196.299 1256.93,209.653C1250.24,198.042 1246.41,184.573 1246.41,170.211Z" style="fill:rgb(255,215,127);fill-rule:nonzero;"/>
        <path d="M1285.12,170.003C1282.93,167.871 1279.41,170.229 1280.55,173.071C1286.85,188.808 1302.23,199.924 1320.22,199.924C1337.9,199.924 1353.07,189.176 1359.56,173.855C1360.74,171.061 1357.2,168.642 1355.02,170.754C1342.54,182.849 1316.06,200.058 1285.12,170.003Z" style="fill:rgb(94,73,57);fill-rule:nonzero;"/>
        <path d="M1342.07,142.57C1344.48,148.6 1350.23,152.496 1356.73,152.496C1363.08,152.496 1368.79,148.714 1371.27,142.86C1371.74,141.739 1371.37,140.475 1370.36,139.785C1369.36,139.094 1368.04,139.204 1367.17,140.052C1362.44,144.638 1354.96,148.318 1346.19,139.804C1345.7,139.323 1345.06,139.077 1344.42,139.077C1343.93,139.077 1343.44,139.221 1343.01,139.512C1342,140.187 1341.61,141.444 1342.07,142.57Z" style="fill:rgb(48,48,48);fill-rule:nonzero;"/>
        <path d="M1268.83,142.57C1271.25,148.6 1277,152.496 1283.5,152.496C1289.85,152.496 1295.56,148.714 1298.04,142.861C1298.51,141.741 1298.14,140.477 1297.14,139.785C1296.13,139.093 1294.81,139.203 1293.93,140.052C1289.21,144.638 1281.73,148.318 1272.96,139.804C1272.47,139.323 1271.83,139.077 1271.19,139.077C1270.7,139.077 1270.21,139.221 1269.78,139.512C1268.77,140.187 1268.38,141.444 1268.83,142.57Z" style="fill:rgb(48,48,48);fill-rule:nonzero;"/>
        <path d="M1272.28,173.082C1272.28,181.301 1265.61,187.964 1257.39,187.964C1249.18,187.964 1242.51,181.301 1242.51,173.082C1242.51,164.863 1249.18,158.201 1257.39,158.201C1265.61,158.201 1272.28,164.863 1272.28,173.082Z" style="fill:rgb(245,166,172);fill-rule:nonzero;"/>
        <path d="M1397.61,173.082C1397.61,181.301 1390.95,187.964 1382.73,187.964C1374.51,187.964 1367.85,181.301 1367.85,173.082C1367.85,164.863 1374.51,158.201 1382.73,158.201C1390.95,158.201 1397.61,164.863 1397.61,173.082Z" style="fill:rgb(245,166,172);fill-rule:nonzero;"/>
    </g>
</svg>
